<svg xmlns="http://www.w3.org/2000/svg" viewBox="0 0 503 239">
    <defs>
        <style>
            .cls-1{opacity:0.7;}.cls-2,.cls-3,.cls-4{fill:#fff;}.cls-2{opacity:0.03;}.cls-3{opacity:0.02;}.cls-4{opacity:0.04;}.cls-5,.cls-6{fill:#00a9ff;}.cls-5,.cls-6,.cls-7{stroke:#00a9ff;stroke-miterlimit:10;stroke-width:0.75px;}.cls-5{opacity:0.2;}.cls-6,.cls-7{opacity:0.1;}.cls-7{fill:none;}
        </style>
    </defs>
    <g id="Слой_2" data-name="Слой 2">
        <g id="Ввод">
            <g id="Окно">
                <path id="Фон" class="cls-1"
                      d="M37.64,117.11v4.24H418.52a84.42,84.42,0,0,0,84.13,81.77v15.53a19.22,19.22,0,0,1-19.23,19.22H19.22a19.56,19.56,0,0,1-5-.65A19.23,19.23,0,0,1,0,218.65V19.81A19.2,19.2,0,0,1,15.59.94,18.93,18.93,0,0,1,19.22.59h464.2a18.78,18.78,0,0,1,3.63.35,17.74,17.74,0,0,1,2.67.71,19.2,19.2,0,0,1,12.93,18.16V34.27a84.35,84.35,0,0,0-84.16,82.84Z"/>
                <g id="Узор">
                    <path class="cls-2"
                          d="M146.6,236.08v1.14H14.23A19.23,19.23,0,0,1,0,218.65V19.81A19.2,19.2,0,0,1,15.59.94H48.34L96.89,117.11H37.64v4.24h61Z"/>
                    <polygon class="cls-3" points="355.59 117.11 267.97 117.11 311.78 0.94 355.59 117.11"/>
                    <polygon class="cls-3"
                             points="400.87 237.22 222.69 237.22 266.38 121.35 357.18 121.35 400.87 237.22"/>
                    <path class="cls-4" d="M418.52,121.35a83.78,83.78,0,0,0,11.2,39.44L400.9,237.22,357.21,121.35Z"/>
                    <path class="cls-4" d="M490,.94l-.27.71-14,37.09a84.48,84.48,0,0,0-57.24,78.37H355.62L311.81.94Z"/>
                </g>
            </g>
            <g id="Дизайн">
                <polygon id="Линия1" class="cls-5"
                         points="488.34 237.88 17.11 237.88 17.11 237.88 488.34 237.88 488.34 237.88"/>
                <polygon id="Линия1-2" data-name="Линия1" class="cls-6"
                         points="488.34 0.38 18.45 0.38 18.45 0.38 488.34 0.38 488.34 0.38"/>
                <path class="cls-7" d="M501.82,202.38v.49a84,84,0,0,1-83-81.49"/>
                <path class="cls-7" d="M418.84,117.38a84,84,0,0,1,83-82.49v.49"/>
            </g>
        </g>
    </g>
</svg>