<svg xmlns="http://www.w3.org/2000/svg" viewBox="0 0 261.18 124.57">
    <path fill="#666" class="cls-1"
          d="M260.3,59.82A176.3,176.3,0,0,0,222,27.08C193.82,9.14,163.13,0,130.74,0h-.15C98.18,0,67.47,9.09,39.29,27A185.87,185.87,0,0,0,14.11,46.29,153.22,153.22,0,0,0,.87,59.82,3.63,3.63,0,0,0,0,62.18a3.67,3.67,0,0,0,.86,2.36c8.52,10,54.79,60,129.73,60h.15c32.43,0,63.14-9.18,91.29-27.21a185.11,185.11,0,0,0,25.11-19.29,155.54,155.54,0,0,0,13.17-13.53,3.63,3.63,0,0,0,.87-2.36A3.59,3.59,0,0,0,260.3,59.82ZM10.81,64.69a3.6,3.6,0,0,1,0-5c10.8-11.32,36.47-34.45,74.55-45.82A1.82,1.82,0,0,1,87,17C73.83,28.19,65.52,44.35,65.52,62.28S73.83,96.37,87,107.54a1.82,1.82,0,0,1-1.68,3.14C47.24,99.28,21.6,76,10.81,64.69ZM130.59,116C98.73,116,72.8,91.89,72.8,62.28S98.73,8.59,130.59,8.59s57.79,24.09,57.79,53.69S162.45,116,130.59,116ZM250.37,64.69c-10.79,11.35-36.43,34.58-74.54,46a1.82,1.82,0,0,1-1.67-3.15c13.19-11.16,21.5-27.31,21.5-45.25S187.34,28.19,174.14,17a1.82,1.82,0,0,1,1.67-3.15c38.08,11.36,63.75,34.49,74.55,45.81A3.62,3.62,0,0,1,250.37,64.69Z"/>
    <path fill="#666" class="cls-1"
          d="M132.47,34.13a28.21,28.21,0,1,0,26.27,26.35A28.25,28.25,0,0,0,132.47,34.13Zm.26,49a20.94,20.94,0,1,1,18.68-18.68A20.95,20.95,0,0,1,132.73,83.11Z"/>
</svg>