<svg xmlns="http://www.w3.org/2000/svg" viewBox="0 0 286.32 94.4">
    <path fill="#666" class="cls-1"
          d="M278.1,58,249.28,40.06l-.18-.1a316.18,316.18,0,0,0-74.89-29.1,343,343,0,0,0-36.14-6.75C121.31,2.05,104.14.67,87.05,0l-.8,0-.72.36A224.91,224.91,0,0,0,44.65,26C20.68,44.91.63,68.94,0,76.23a4.58,4.58,0,0,0,1.07,3.49C4,83,7.66,80.26,14.93,74.84c10-7.42,28.56-21.2,55-28.21l.87-.23c12.5-3.31,35.8-9.49,62.29-2.54,21,5.5,45.4,19.74,65,31.19,17.35,10.11,31,18.09,39.11,18.66.93.05,6.14.33,12.37.51,3.52.1,6.19.18,8.27.18a27.1,27.1,0,0,0,5.13-.34,31.17,31.17,0,0,0,16.68-8.85c2.8-2.93,6.63-6.9,6.68-13C286.37,64.09,279.49,59,278.1,58ZM275,80.77a25,25,0,0,1-13.24,7c-1.85.33-5.67.23-12,0a2.55,2.55,0,0,1-.39,0L240.81,64a3.08,3.08,0,0,0-6,1,2.86,2.86,0,0,0,.18,1l7.73,21.51c-2.88-.13-4.8-.26-5.11-.28a14.77,14.77,0,0,1-3.23-.64,1.19,1.19,0,0,0-.11-.41L224.05,57.72a3.09,3.09,0,0,0-4-1.85,3.06,3.06,0,0,0-2,2.9,3,3,0,0,0,.18,1.06l8.54,23.74c-3.21-1.52-6.8-3.42-10.65-5.55a.56.56,0,0,0-.08-.3l-8.77-24.39a3.08,3.08,0,0,0-4-1.84,3,3,0,0,0-2.05,2.9,2.94,2.94,0,0,0,.18,1l6.44,17.89-6.57-3.83c-20-11.65-44.81-26.13-66.63-31.85a104.07,104.07,0,0,0-26.53-3.33c-16.84,0-30.91,3.72-39,5.9l-.87.2C40.65,47.74,21.45,62,11.1,69.71L9.59,70.84c6-8.81,20.2-25,39-39.81a219.78,219.78,0,0,1,39-24.56q4.81.19,9.63.46l3.54,9.78a3.08,3.08,0,0,0,5.8-2.08L104,7.34c11.19.72,22.36,1.8,33.32,3.13a337.22,337.22,0,0,1,35.42,6.62A309.12,309.12,0,0,1,246,45.56l28.57,17.76c.74.54,5.39,4,5.36,8.9C279.88,75.71,277.51,78.15,275,80.77Z"/>
</svg>