<svg xmlns="http://www.w3.org/2000/svg" viewBox="0 0 186.77 175.4">
    <path fill="#666"
          d="M130.9,143.6l-1.24-23.43q2.9-4.32,6-9.4a60.77,60.77,0,0,0,7.11-18.35s0,0,0,0c3.75-3.34,9.26-17.38,5.39-25.8-.36-.77-2-4.44-3.7-4.26a1.14,1.14,0,0,0-.38.13,122.86,122.86,0,0,0-3.29-19.92C136,24,127.38,11.4,115.11,5.08A46.87,46.87,0,0,0,93.58,0C80,0,68.14,5,59.24,14.32,48.87,25.23,43.12,41.68,42.4,62.42a.54.54,0,0,0-.28-.08c-1.67-.18-3.34,3.49-3.7,4.26-4.34,9.47,3.16,26,6.67,26.49A57,57,0,0,0,53,110.93c2.41,3.51,4.72,6.75,7,9.7L58.75,143,0,164.18,2.05,175.4h182l2.72-11.52ZM59,106.77A51,51,0,0,1,51.49,88a90.05,90.05,0,0,1-1.67-14.17c-1.21-24.23,3.9-43,14.75-54.46,7.47-7.86,17.51-12,29-12a39.56,39.56,0,0,1,18.17,4.26c22.46,11.55,25.36,47.5,25.56,62.44.05,4.52-.33,20.3-7.95,32.88-9.09,15-17,24.77-23.41,29-3.11,2.05-17.81,1.8-21.28-.36C77.82,131.31,69.19,121.63,59,106.77Zm44.81,59H84.7A20.76,20.76,0,0,1,70,159.67a18.87,18.87,0,0,1-2-2.31L69.35,132a59.28,59.28,0,0,0,11.45,9.88c3.92,2.44,11.47,2.82,14.55,2.87.33,0,.67,0,1.05,0,4,0,10.22-.41,13.6-2.62a51.3,51.3,0,0,0,10.3-9.5l1.25,23.26A20.87,20.87,0,0,1,103.82,165.77Z"/>
</svg>