<svg xmlns="http://www.w3.org/2000/svg" viewBox="0 0 242.93 119.05">
    <path fill="#666"
          d="M242.86,55.91c-.92-7.68-10.19-11.24-16.94-13.84l-1.15-.46c-21.23-8.26-35-18.5-46-26.74C165.4,4.94,154.88-2.89,140.27,1,133.19,3,126.72,7.3,121,13.94c-6.8-7-14.2-11.34-22.1-12.88-14.63-2.87-24.31,4.7-36.57,14.3C52,23.44,39.13,33.5,18.57,41.61l-1.36.54C10.25,44.87.7,48.59,0,56.27s7.82,12.8,15.32,17.37l1.28.77c18.43,11.3,27.05,19.53,34,26.16,7.5,7.16,12.91,12.32,25.59,15.81a76.27,76.27,0,0,0,20.18,2.67,94.31,94.31,0,0,0,25.12-3.6,88.18,88.18,0,0,0,34.42,1.7c11.7-1.83,16.48-5.19,30.67-15.2,8.09-5.7,19.15-13.5,36.57-24.66l1-.64C234.72,69.9,243.84,64.07,242.86,55.91ZM20,49.21l1.39-.54C42.92,40.15,56.24,29.7,67,21.34,77.19,13.3,83.94,8,92.69,8a23.73,23.73,0,0,1,4.7.48c7.36,1.44,14.37,6.06,20.84,13.73l3.08,3.65L124.16,22c5.41-7.29,11.49-11.88,18.09-13.68,11.06-3,18.92,2.87,31.95,12.6,11.43,8.5,25.64,19.1,47.79,27.72l1.18.46a56.25,56.25,0,0,1,8.81,4c-25.62,3.69-44,3.74-54.75.1l-.36-.13A53.14,53.14,0,0,0,161.42,50c-8.31-.41-15,1.31-22.63,3.29A142.68,142.68,0,0,0,121.31,59C103.06,51.93,87.4,49.65,83,50c-2.2.18-4.39.52-6.16.83s-3.08.59-3.54.69c-2.23.67-4.52,1.26-6.77,1.77a129.79,129.79,0,0,1-55.72.18A58.18,58.18,0,0,1,20,49.21Zm200.11,21-1,.67C201.54,82.16,190.37,90,182.24,95.77c-13.81,9.72-17.53,12.34-27.46,13.88a80.59,80.59,0,0,1-32.42-1.8l-1-.25-1,.28c-15.06,4.34-29.23,4.72-42.17,1.18-10.83-3-15.16-7.11-22.35-14-6.8-6.52-16.14-15.43-35.26-27.16l-1.29-.79a70.14,70.14,0,0,1-8.85-6,136.42,136.42,0,0,0,57.72-.46c2.39-.54,4.77-1.15,7.11-1.85a65.68,65.68,0,0,1,8.29-1.28c2.49-.21,17.32,1.46,36.34,9.09l1.44.56,1.41-.59a134.71,134.71,0,0,1,17.91-6c7.37-1.9,13.2-3.42,20.38-3.06a46.57,46.57,0,0,1,13.32,2.67l.41.13c12.07,4.11,31.27,4.18,58.63.18C230.59,63.56,225.1,67.05,220.09,70.25Z"/>

</svg>