<svg xmlns="http://www.w3.org/2000/svg" viewBox="0 0 121.68 194.62">
                <path fill="#666"
                      d="M70.69,194.58h0a3.77,3.77,0,0,1-3.23-3.94c1-17.15-11-23.57-18.49-25.91-.54-.16-3.22-.81-15-2.12a41.83,41.83,0,0,1-22.87-9.74c-19.32-16.62-8.25-37.64-4.4-43.69,1.27-2,17.28-32.2,19-35.48L63.23,2a3.78,3.78,0,0,1,5.1-1.6h0a3.79,3.79,0,0,1,1.6,5.11L32.35,77.21c-.76,1.46-17.71,33.51-19.32,36-4.82,7.56-10.84,22,3,33.89a34.3,34.3,0,0,0,18.77,8c13.46,1.48,15.71,2.18,16.45,2.41,6.13,1.9,25.13,9.77,23.8,33.54A3.79,3.79,0,0,1,70.69,194.58Z"/>
                <path fill="#666"
                      d="M86.79,147.83c-16.19-13.59-34.51-7.8-41.6-4.7a3.74,3.74,0,0,1-4.74-1.57h0a3.74,3.74,0,0,1,1.77-5.32c8.61-3.63,30.35-10.16,49.38,5.75a3.78,3.78,0,0,1,.29,5.54l0,0A3.73,3.73,0,0,1,86.79,147.83Z"/>
                <path fill="#666"
                      d="M100.81,166.56h0a3.74,3.74,0,0,1,1.11-4.91,28,28,0,0,0,9.84-11.33c5.41-11.88,1-27.87-10.56-39.91a3.79,3.79,0,0,1-.11-5.19h0a3.76,3.76,0,0,1,5.47-.14c14,14.4,18.87,33.43,12.08,48.38a35.46,35.46,0,0,1-12.37,14.38A3.79,3.79,0,0,1,100.81,166.56Z"/>
</svg>