<svg viewBox="0 0 539 753" fill="none" xmlns="http://www.w3.org/2000/svg">
    <filter id="shadow">
        <feDropShadow dx="0" dy="0" stdDeviation="3"
                      flood-color="#00c8ff"/>
    </filter>
    <path d="M12.11 194.57V613.34L1.37 602.6V205.35L12.11 194.57Z" fill="#00C8FF" filter="url(#shadow)"/>
    <path d="M12.11 194.57V613.34L1.37 602.6V205.35L12.11 194.57Z" stroke="#00C8FF" stroke-miterlimit="10" filter="url(#shadow)"/>
    <path opacity="0.5"
          d="M267.43 752.93H152.94C152.145 752.929 151.382 752.613 150.82 752.05L13 614.22C12.7201 613.94 12.4983 613.608 12.3473 613.243C12.1963 612.877 12.119 612.486 12.12 612.09V4.28998C12.12 3.49433 12.4361 2.73127 12.9987 2.16866C13.5613 1.60605 14.3243 1.28998 15.12 1.28998H398C398.45 1.29113 398.895 1.39367 399.3 1.58998L536.3 67.83C536.807 68.076 537.234 68.4597 537.533 68.9372C537.832 69.4147 537.99 69.9667 537.99 70.53C538.097 296.99 538.2 523.453 538.3 749.92C538.3 750.716 537.984 751.479 537.421 752.041C536.859 752.604 536.096 752.92 535.3 752.92H282.91"
          fill="black"/>
    <path opacity="0.04" d="M11.94 0.72998L140.79 290.65H11.94V0.72998Z" fill="white"/>
    <path opacity="0.04" d="M537.94 751.65V386.57L280.24 751.65H537.94Z" fill="white"/>
    <path opacity="0.04" d="M538.48 141.24L355.94 291.56V1.65002H399.8L538.48 141.24Z" fill="white"/>
    <path opacity="0.02" d="M232.74 515.62L140.79 289.38L324.68 289.35L232.74 515.62Z" fill="white"/>
    <path opacity="0.03" d="M141.18 289.35L248.56 0.630005L355.93 289.35H141.18Z" fill="white"/>
    <path opacity="0.03" d="M248.17 527.43L151.53 752.92L11.94 613.34V441.54L248.17 527.43Z" fill="white"/>
    <path opacity="0.03" d="M355.55 290.65L477.54 473.06L248.17 526.88L355.55 290.65Z" fill="white"/>
    <path opacity="0.02" d="M135.79 290.65L68.63 462.21L6.94 439.94V290.65H135.79Z" fill="white"/>
    <path d="M84.57 685.57H537.9" stroke="#00C8FF" stroke-miterlimit="10" filter="url(#shadow)"/>
    <path d="M537.28 68.65H11.94" stroke="#00C8FF" stroke-miterlimit="10" filter="url(#shadow)"/>
    <path d="M282.56 752.35H534.9C535.696 752.35 536.459 752.034 537.021 751.471C537.584 750.909 537.9 750.146 537.9 749.35C537.8 522.89 537.697 296.427 537.59 69.96C537.59 69.3967 537.432 68.8447 537.133 68.3672C536.834 67.8897 536.407 67.506 535.9 67.26L398.93 1.00001C398.525 0.803702 398.08 0.701167 397.63 0.700012H14.76C13.9643 0.700012 13.2013 1.01608 12.6387 1.57869C12.0761 2.1413 11.76 2.90436 11.76 3.70001V611.5C11.7607 612.295 12.0772 613.058 12.64 613.62L150.47 751.47C151.032 752.033 151.795 752.349 152.59 752.35H282.59H282.56Z"
          stroke="#00C8FF" stroke-miterlimit="10" filter="url(#shadow)"/>
</svg>
