<svg width="539" height="754" viewBox="0 0 539 754" fill="none" xmlns="http://www.w3.org/2000/svg">
    <defs>
        <filter id="shadow">
            <feDropShadow dx="0" dy="0" stdDeviation="3"
                          flood-color="#00c8ff"/>
        </filter>
    </defs>
    <path filter="url(#shadow)" d="M12 194.64V613.41L1.26001 602.67V205.43L12 194.64Z" fill="#00C8FF"/>
    <path filter="url(#shadow)" d="M12 194.64V613.41L1.26001 602.67V205.43L12 194.64Z" stroke="#00C8FF" stroke-miterlimit="10"/>
    <path filter="url(#shadow)" d="M282.8 753H538.14V140.96L398.55 1.37H12V613.41L151.59 753H267.32H282.8Z" stroke="#00C8FF" stroke-miterlimit="10"/>
    <path opacity="0.7" d="M267.32 753H151.59L12 613.41V1.37H398.55L538.14 140.96V753H282.8" fill="black"/>
    <g opacity="0.6">
        <path filter="url(#shadow)" opacity="0.6" d="M12.5 1.87V54.63H451.07C433.503 37.05 415.927 19.4733 398.34 1.89999L12.5 1.87Z" stroke="#00C8FF" stroke-miterlimit="10"/>
    </g>
    <path opacity="0.04" d="M12 1.37L140.85 291.28H12V1.37Z" fill="white"/>
    <path opacity="0.04" d="M538.14 753V387.92L280.44 753H538.14Z" fill="white"/>
    <path opacity="0.04" d="M538.14 140.96L355.6 291.28V1.37H399.46L538.14 140.96Z" fill="white"/>
    <path opacity="0.02" d="M248.23 527.51L140.85 291.28L355.6 291.25L248.23 527.51Z" fill="white"/>
    <path opacity="0.03" d="M140.85 290.09L248.23 1.37L355.6 290.09H140.85Z" fill="white"/>
    <path opacity="0.03" d="M248.23 527.51L151.59 753L12 613.41V441.61L248.23 527.51Z" fill="white"/>
    <path opacity="0.03" d="M356.8 291.28L478.79 473.69L249.42 527.51L356.8 291.28Z" fill="white"/>
    <path opacity="0.02" d="M140.85 292.48L73.69 464.04L12 441.76V292.48H140.85Z" fill="white"/>
</svg>
