<svg viewBox="0 0 353 147" fill="none" xmlns="http://www.w3.org/2000/svg">
    <defs>
        <filter id="shadow">
            <feDropShadow dx="0" dy="0" stdDeviation="1"
                          flood-color="#00c8ff"/>
        </filter>
    </defs>
    <path opacity="0.7"
          d="M350 23V107.685C350.003 108.105 349.917 108.521 349.747 108.906C349.576 109.29 349.326 109.634 349.012 109.914L309.638 144.27C309.092 144.747 308.389 145.006 307.663 145H5.96278C5.17703 145 4.42346 144.688 3.86784 144.133C3.31223 143.578 3.00009 142.825 3.00009 142.04V60.3153C2.99675 59.8949 3.08309 59.4785 3.25338 59.0941C3.42366 58.7096 3.67398 58.3657 3.98766 58.0854L44.2308 23H350Z"
          fill="black"/>
    <path opacity="0.02" d="M0.630005 63.78V147.15H94.8415L0.630005 63.78Z" fill="white"/>
    <path opacity="0.01" d="M108.097 23.5L70.876 127.99L13.9752 46.91L108.097 23.5Z" fill="white"/>
    <path opacity="0.02" d="M90.4263 71.39L148.759 147.15H242.453L90.4263 71.39Z" fill="white"/>
    <path opacity="0.02" d="M90.4263 71.39L145.517 23.5H111.936L90.4263 71.39Z" fill="white"/>
    <path opacity="0.01" d="M312.451 144.67L242.453 90.15L350 104.56L312.451 144.67Z" fill="white"/>
    <path opacity="0.02" d="M242.453 90.15L186.477 23.5H285.472L242.453 90.15Z" fill="white"/>
    <path opacity="0.01" d="M350 63.04L254.864 64.38L323.21 23.5H350V63.04Z" fill="white"/>
    <path opacity="0.01" d="M138.039 100.83L208.593 49.78L222.843 137.37L138.039 100.83Z" fill="white"/>
    <path d="M350 23.5V107.838C350.003 108.256 349.917 108.671 349.747 109.054C349.576 109.437 349.326 109.779 349.012 110.058L309.638 144.273C309.092 144.748 308.389 145.006 307.663 145H5.96278C5.17703 145 4.42346 144.689 3.86784 144.136C3.31223 143.584 3.00009 142.834 3.00009 142.052V60.6624C2.99675 60.2437 3.08309 59.829 3.25338 59.4461C3.42366 59.0632 3.67398 58.7208 3.98766 58.4417L44.2308 23.5H350Z"
          stroke="#00C8FF" stroke-miterlimit="10" filter="url(#shadow)"/>
    <path opacity="0.7"
          d="M54.8816 1.9H339.118C342.004 1.9 344.772 3.05893 346.813 5.12183C348.854 7.18473 350 9.98262 350 12.9V23.56H44V12.9C44 9.98262 45.1465 7.18473 47.1871 5.12183C49.2278 3.05893 51.9956 1.9 54.8816 1.9V1.9Z"
          fill="black"/>
    <path d="M350 23.56H44V12.9C44 9.98262 45.1465 7.18473 47.1871 5.12183C49.2278 3.05893 51.9956 1.9 54.8816 1.9H339.118C342.004 1.9 344.772 3.05893 346.813 5.12183C348.854 7.18473 350 9.98262 350 12.9V23.56Z"
          stroke="#00C8FF" stroke-miterlimit="10" filter="url(#shadow)"/>

</svg>
