<svg viewBox="0 0 254 53" xmlns="http://www.w3.org/2000/svg">
    <path d="M2.99325 9.03757e-07H153.993C154.447 -0.000351263 154.895 0.102222 155.303 0.300001L252.163 47.17C252.775 47.4661 253.267 47.9609 253.561 48.5734C253.854 49.1859 253.931 49.88 253.779 50.542C253.627 51.204 253.255 51.7947 252.723 52.2176C252.192 52.6405 251.533 52.8705 250.853 52.87L41.8532 52.35C41.4167 52.349 40.9856 52.2528 40.5901 52.068C40.1945 51.8831 39.8441 51.6142 39.5633 51.28L0.70325 4.93C0.336116 4.4931 0.10121 3.96055 0.0260996 3.39484C-0.0490104 2.82913 0.0387913 2.25374 0.279201 1.73617C0.519611 1.21861 0.902654 0.780354 1.38338 0.472834C1.86411 0.165313 2.42258 0.00128534 2.99325 9.03757e-07V9.03757e-07Z"
          fill="#FFF"/>
</svg>
