<svg id="Ввод" xmlns="http://www.w3.org/2000/svg" viewBox="0 0 502.65 237.28"><defs><style>.cls-1{opacity:0.7;}.cls-2,.cls-3,.cls-4{fill:#fff;}.cls-2{opacity:0.03;}.cls-3{opacity:0.02;}.cls-4{opacity:0.05;}</style></defs><title>Фон</title><g id="Окно"><path id="Фон" class="cls-1" d="M747.82,617.73V622H1128.7a84.42,84.42,0,0,0,84.13,81.78v15.52a19.22,19.22,0,0,1-19.23,19.23H729.4a19.22,19.22,0,0,1-19.22-19.23V520.43a19.21,19.21,0,0,1,15.59-18.88,19.77,19.77,0,0,1,3.63-.34h464.2a19.6,19.6,0,0,1,3.63.34,20.49,20.49,0,0,1,2.67.71,19.21,19.21,0,0,1,12.93,18.17v14.46a84.35,84.35,0,0,0-84.16,82.84Z" transform="translate(-710.18 -501.21)"/><g id="Узор"><path class="cls-2" d="M856.78,736.7v1.13H724.41a19.21,19.21,0,0,1-14.23-18.57V520.43a19.21,19.21,0,0,1,15.59-18.88h32.75l48.55,116.18H747.82V622h61Z" transform="translate(-710.18 -501.21)"/><polygon class="cls-3" points="355.59 116.52 267.97 116.52 311.78 0.35 355.59 116.52"/><polygon class="cls-3" points="400.87 236.63 222.69 236.63 266.38 120.76 357.18 120.76 400.87 236.63"/><path class="cls-4" d="M1128.7,622a83.82,83.82,0,0,0,11.2,39.45l-28.82,76.42L1067.39,622Z" transform="translate(-710.18 -501.21)"/><path class="cls-4" d="M1200.17,501.55l-.27.71-14,37.1a84.46,84.46,0,0,0-57.24,78.37H1065.8L1022,501.55Z" transform="translate(-710.18 -501.21)"/></g></g></svg>