<svg xmlns="http://www.w3.org/2000/svg" xmlns:xlink="http://www.w3.org/1999/xlink" viewBox="0 0 286 149">
    <defs>
        <style>.cls-1{fill:#00c8ff;}.cls-2{fill:#fff;}</style>
    </defs>

    <ellipse fill="#00c8ff" cx="143.11" cy="74.4" rx="57.95" ry="53.69"/>
    <path fill="#fff"
          d="M272.82,71.93A176.32,176.32,0,0,0,234.48,39.2c-28.15-18-58.83-27.06-91.22-27.09h-.15c-32.41,0-63.12,9.1-91.31,27A186.49,186.49,0,0,0,26.62,58.41,154.46,154.46,0,0,0,13.39,71.93a3.65,3.65,0,0,0,0,4.72c8.52,10,54.78,60,129.73,60h.15c32.42,0,63.14-9.18,91.29-27.21a185.94,185.94,0,0,0,25.1-19.29,154.27,154.27,0,0,0,13.18-13.54,3.65,3.65,0,0,0,0-4.72ZM23.33,76.81a3.61,3.61,0,0,1,0-5C34.14,60.49,59.81,37.35,97.88,26a1.82,1.82,0,0,1,1.68,3.15C86.35,40.3,78,56.46,78,74.4s8.3,34.08,21.5,45.25a1.82,1.82,0,0,1-1.67,3.15C59.76,111.39,34.11,88.16,23.33,76.81Zm119.78,51.28c-31.86,0-57.79-24.09-57.79-53.69s25.93-53.7,57.79-53.7,57.78,24.09,57.78,53.7S175,128.09,143.11,128.09ZM262.88,76.81c-10.78,11.35-36.42,34.58-74.53,46a1.82,1.82,0,0,1-1.68-3.15c13.2-11.16,21.5-27.31,21.5-45.24s-8.31-34.1-21.51-45.25A1.82,1.82,0,0,1,188.33,26c38.07,11.36,63.74,34.5,74.54,45.81A3.61,3.61,0,0,1,262.88,76.81Z"/>
    <path fill="#fff"
          d="M145,46.25a28.21,28.21,0,1,0,26.28,26.34A28.24,28.24,0,0,0,145,46.25Zm.27,49a20.94,20.94,0,1,1,18.68-18.68A21,21,0,0,1,145.25,95.22Z"/>
</svg>