<svg xmlns="http://www.w3.org/2000/svg" xmlns:xlink="http://www.w3.org/1999/xlink" viewBox="0 0 311 120">
    <path fill="#00c8ff" class="cls-1"
          d="M99.34,15.93A222,222,0,0,0,59,41.21C32.76,62,13.12,87.21,15.88,90.26s24.58-23.17,65.59-34c12.08-3.2,36.83-10.12,64.8-2.78,38.9,10.2,87.28,48.63,103.55,49.74.7,0,5.82.33,12.25.52,7,.21,10.58.31,12.7-.09a28.11,28.11,0,0,0,15-7.94c2.66-2.77,5.74-6,5.77-10.75.05-6.74-6.05-11.06-6.81-11.59L260,55.47a311.27,311.27,0,0,0-74.12-28.79A337.9,337.9,0,0,0,150.09,20C137.88,18.49,120.49,16.73,99.34,15.93Z"/>
    <path fill="#fff" class="cls-2"
          d="M290.51,70.7,261.69,52.76l-.18-.1a316.65,316.65,0,0,0-74.89-29.11,344,344,0,0,0-36.14-6.75c-16.76-2.05-33.93-3.44-51-4.08l-.8,0-.72.35A225.11,225.11,0,0,0,57.06,38.69c-24,18.92-44,42.94-44.63,50.23a4.56,4.56,0,0,0,1.07,3.49c2.93,3.24,6.57.54,13.84-4.87,10-7.42,28.56-21.2,55-28.21l.87-.23c12.5-3.31,35.8-9.5,62.29-2.54,21,5.49,45.4,19.74,65,31.18,17.35,10.11,31,18.1,39.11,18.66.93,0,6.14.33,12.37.51,3.52.11,6.19.18,8.27.18a27.24,27.24,0,0,0,5.13-.33,31.23,31.23,0,0,0,16.68-8.85c2.8-2.93,6.62-6.91,6.68-13C298.78,76.78,291.9,71.65,290.51,70.7Zm-3.08,22.77a24.88,24.88,0,0,1-13.24,7c-1.85.34-5.67.23-12,0a1.71,1.71,0,0,1-.39,0l-8.57-23.79a3.08,3.08,0,0,0-6,1,2.86,2.86,0,0,0,.18,1.05l7.73,21.51c-2.88-.13-4.8-.26-5.11-.29a14.84,14.84,0,0,1-3.24-.64,1.23,1.23,0,0,0-.1-.41L236.46,70.42a3.09,3.09,0,0,0-4-1.85,3.12,3.12,0,0,0-1.88,4l8.55,23.74c-3.21-1.51-6.8-3.41-10.65-5.54a.71.71,0,0,0-.08-.31L219.68,66a3.09,3.09,0,0,0-4-1.85,3.05,3.05,0,0,0-2.05,2.9,2.86,2.86,0,0,0,.18,1L220.29,86l-6.57-3.82c-20-11.65-44.81-26.13-66.63-31.85A104.17,104.17,0,0,0,120.55,47c-16.83,0-30.9,3.72-39,5.9l-.88.21C53.05,60.43,33.86,74.73,23.51,82.4L22,83.53c6-8.8,20.2-24.94,39-39.8a219.82,219.82,0,0,1,39-24.57q4.82.19,9.63.47l3.54,9.77a3.08,3.08,0,0,0,5.8-2.07L116.37,20c11.19.71,22.36,1.79,33.32,3.13a336.76,336.76,0,0,1,35.41,6.62,309,309,0,0,1,73.28,28.46L287,76c.74.54,5.39,4,5.36,8.91C292.28,88.41,289.92,90.85,287.43,93.47Z"/>
</svg>