<svg xmlns="http://www.w3.org/2000/svg" xmlns:xlink="http://www.w3.org/1999/xlink" viewBox="0 0 211 201">
    <defs>
    </defs>

    <path fill="#00c8ff" class="cls-1"
          d="M58.28,86.79c.4,7.87,1.53,22.75,9.83,34.85,8,11.66,17.77,24.24,26.76,29.84,4.58,2.86,20.79,3.25,25.23.33,8.57-5.63,17.52-18.61,24.53-30.17,7.55-12.47,8.58-27.68,8.48-34.85-.1-7.68-.72-51.87-27.56-65.65a43.24,43.24,0,0,0-19.85-4.68C79.51,16.46,55.79,36.76,58.28,86.79Z"/>
    <path fill="#fff" class="cls-2"
          d="M143.12,156.38l-1.23-23.44q2.88-4.31,6-9.39A60.74,60.74,0,0,0,155,105.2a0,0,0,0,1,0,0c3.75-3.33,9.27-17.37,5.39-25.79-.36-.77-2-4.44-3.7-4.26a1.23,1.23,0,0,0-.38.13A121.6,121.6,0,0,0,153,55.33c-4.77-18.55-13.42-31.16-25.69-37.47a46.87,46.87,0,0,0-21.53-5.08c-13.55,0-25.44,5-34.34,14.32C61.09,38,55.34,54.46,54.62,75.2a.51.51,0,0,0-.28-.08c-1.67-.18-3.34,3.49-3.7,4.26-4.33,9.47,3.16,26,6.68,26.49a56.7,56.7,0,0,0,7.85,17.84c2.41,3.51,4.72,6.75,7,9.7L71,155.79,12.22,177l2.06,11.22h182L199,176.65ZM71.23,119.55a51.2,51.2,0,0,1-7.52-18.76A90.18,90.18,0,0,1,62,86.62c-1.21-24.23,3.9-43,14.76-54.46,7.47-7.86,17.5-12,29-12A39.65,39.65,0,0,1,124,24.4C146.43,36,149.33,71.91,149.53,86.85c.06,4.52-.33,20.3-7.95,32.88-9.09,15-17,24.76-23.41,29-3.11,2.05-17.81,1.8-21.28-.36C90,144.08,81.42,134.41,71.23,119.55Zm44.81,59H96.92a20.76,20.76,0,0,1-14.71-6.11,17.41,17.41,0,0,1-2-2.31l1.33-25.4A59.28,59.28,0,0,0,93,154.61c3.92,2.43,11.47,2.82,14.55,2.87.33,0,.67,0,1.05,0,4,0,10.22-.41,13.61-2.62a51.55,51.55,0,0,0,10.29-9.5l1.26,23.26A20.92,20.92,0,0,1,116,178.55Z"/>

</svg>