<svg xmlns="http://www.w3.org/2000/svg" viewBox="0 0 268 144">
    <path fill="#00c8ff" class="cls-1"
          d="M134.08,32c-9-10.71-17.46-13.92-23-15C87,12.26,78.37,39.4,32.93,57.37c-6.24,2.47-15.66,5.72-16.16,11.45s7.91,10.36,14.81,14.59c39,23.88,35.91,35.31,58.6,41.54,8.53,2.34,23.59,4.73,44.22-1.2a83.8,83.8,0,0,0,33.91,1.87c17-2.65,17.81-8.56,65.78-39.29,10.07-6.45,18.69-11.73,18-17.73-.69-5.78-9.65-8.87-15.71-11.23-47.52-18.53-58.52-46.82-82.12-40.44C149.1,18.32,141.64,21.82,134.08,32Z"/>
    <path fill="#fff" class="cls-2"
          d="M255.71,68.13c-.93-7.67-10.19-11.24-16.94-13.83l-1.16-.46c-21.22-8.27-35-18.51-46-26.75-13.34-9.93-23.87-17.76-38.47-13.83-7.08,1.93-13.55,6.26-19.33,12.91-6.8-7-14.19-11.34-22.09-12.88C97.07,10.41,87.39,18,75.12,27.58,64.8,35.67,52,45.73,31.41,53.84l-1.36.54c-6.95,2.72-16.5,6.44-17.17,14.11S20.71,81.3,28.21,85.87l1.28.77c18.43,11.29,27.05,19.53,34,26.15C71,120,76.38,125.11,89.06,128.6a76.25,76.25,0,0,0,20.17,2.67,94.7,94.7,0,0,0,25.13-3.59,88.16,88.16,0,0,0,34.42,1.69c11.7-1.82,16.47-5.18,30.67-15.19,8.08-5.7,19.14-13.5,36.57-24.67l1-.64C247.57,82.12,256.68,76.3,255.71,68.13ZM32.83,61.43l1.38-.53c21.56-8.53,34.88-19,45.58-27.34,10.24-8,17-13.32,25.75-13.32a23.6,23.6,0,0,1,4.69.49c7.37,1.44,14.38,6.06,20.84,13.73l3.08,3.64L137,34.25c5.42-7.28,11.5-11.88,18.1-13.67,11.06-3,18.91,2.87,32,12.6,11.42,8.49,25.64,19.09,47.79,27.72l1.18.46a56.08,56.08,0,0,1,8.8,4c-25.61,3.7-44,3.75-54.74.1l-.36-.12a52.79,52.79,0,0,0-15.45-3.08c-8.32-.41-15,1.31-22.64,3.28a146.78,146.78,0,0,0-17.48,5.72c-18.25-7.1-33.9-9.39-38.34-9-2.21.18-4.39.51-6.16.82s-3.08.59-3.54.69c-2.24.67-4.52,1.26-6.78,1.78a130,130,0,0,1-55.72.18A59.26,59.26,0,0,1,32.83,61.43ZM232.94,82.48l-1,.67c-17.56,11.24-28.72,19.09-36.86,24.84-13.8,9.73-17.53,12.35-27.46,13.89a80.91,80.91,0,0,1-32.41-1.8l-1-.26-1,.29c-15.07,4.33-29.23,4.72-42.17,1.18-10.83-3-15.17-7.11-22.35-14C61.9,100.81,52.56,91.9,33.44,80.17l-1.28-.79a71.31,71.31,0,0,1-8.86-6A136.63,136.63,0,0,0,81,72.91c2.38-.54,4.77-1.16,7.1-1.85a64.42,64.42,0,0,1,8.29-1.28c2.49-.21,17.33,1.46,36.35,9.08l1.43.57,1.42-.59a133.33,133.33,0,0,1,17.91-6c7.37-1.9,13.19-3.41,20.38-3a46.38,46.38,0,0,1,13.32,2.67l.41.12c12.06,4.11,31.26,4.19,58.62.18C243.44,75.78,238,79.27,232.94,82.48Z"/>
</svg>