<svg xmlns="http://www.w3.org/2000/svg" viewBox="0 0 147 220">
    <path fill="#00c8ff"
          d="M79.16,15.71c1-1.31,1.76-1.58,2.28-1.49,6.33,1-12.12,54.48,11.37,86,12.3,16.48,27.56,15.5,34.47,34.69.8,2.23,6.79,19.54-.93,30.77C109.24,190.53,28.59,179.87,19,146c-1.15-4.06-4-18.07,13.46-40Z"/>
    <path fill="#fff"
          d="M83.4,207.15h0a3.78,3.78,0,0,1-3.23-3.94c1-17.15-11-23.57-18.48-25.9-.55-.17-3.23-.82-15-2.12a41.9,41.9,0,0,1-22.87-9.75c-19.32-16.61-8.25-37.64-4.4-43.68,1.27-2,17.28-32.21,19-35.48L75.94,14.6A3.79,3.79,0,0,1,81.05,13h0a3.78,3.78,0,0,1,1.59,5.1L45.06,89.78c-.76,1.47-17.71,33.52-19.31,36-4.82,7.56-10.85,22,2.95,33.89a34.36,34.36,0,0,0,18.77,8c13.46,1.49,15.72,2.18,16.46,2.41,6.12,1.91,25.12,9.77,23.79,33.54A3.78,3.78,0,0,1,83.4,207.15Z"/>
    <path fill="#fff"
          d="M99.5,160.4c-16.19-13.58-34.5-7.8-41.6-4.7a3.74,3.74,0,0,1-4.74-1.56h0a3.76,3.76,0,0,1,1.77-5.33c8.62-3.63,30.36-10.16,49.38,5.76a3.76,3.76,0,0,1,.29,5.53l0,0A3.73,3.73,0,0,1,99.5,160.4Z"/>
    <path fill="#fff"
          d="M113.52,179.14h0a3.75,3.75,0,0,1,1.11-4.92,28,28,0,0,0,9.85-11.32c5.4-11.89,1-27.88-10.56-39.92a3.78,3.78,0,0,1-.12-5.19h0a3.77,3.77,0,0,1,5.47-.14c14,14.4,18.88,33.43,12.08,48.38A35.25,35.25,0,0,1,119,180.4,3.8,3.8,0,0,1,113.52,179.14Z"/>
</svg>