<svg version="1.1" id="Слой_1" xmlns="http://www.w3.org/2000/svg" xmlns:xlink="http://www.w3.org/1999/xlink" 
	 viewBox="0 0 456.8 636" preserveAspectRatio="none">
<style type="text/css">
	.left-polygon{fill:#00C8FF; filter: drop-shadow(0 0 5px #00c8ff);}
	.bg{opacity:0.7; filter: drop-shadow(0 0 5px #00c8ff);}
	.triangle-4{opacity:0.04;fill:#FFFFFF;}
	.triangle-5{opacity:0.02;fill:#FFFFFF;}
	.triangle-6{opacity:0.03;fill:#FFFFFF;}
</style>
<g id="Окно_2">
	<polygon class="left-polygon" points="13,166 13,517 4,508 4,175"/>
	<path id="bg" class="bg" d="M454,121v513H240c-2.2,0-4-1.8-4-4v-92.5c0-1.4-1.1-2.5-2.5-2.5l0,0c-1.4,0-2.5,1.1-2.5,2.5V630
		c0,2.2-1.8,4-4,4h-97L13,517V4h324L454,121z"/>
	<g id="triangle">
		<polygon class="triangle-4" points="13,4 121,247 13,247"/>
		<polygon class="triangle-4" points="454,634 454,328 238,634"/>
		<polygon class="triangle-4" points="454,121 301,247 301,4 337.8,4"/>
		<polygon class="triangle-5" points="211,445 121,247 301,247"/>
		<polygon class="triangle-6" points="121,246 211,4 301,246"/>
		<polygon class="triangle-6" points="211,445 130,634 13,517 13,373"/>
		<polygon class="triangle-6" points="302,247 404.3,399.9 212,445"/>
		<polygon class="triangle-5" points="121,248 64.7,391.8 13,373.1 13,248"/>
	</g>
</g>
</svg>
