<svg width="444" height="621" viewBox="0 0 449 626" fill="none" xmlns="http://www.w3.org/2000/svg">

    <defs>
        <filter id="shadow">
            <feDropShadow dx="0" dy="0" stdDeviation="3"
                          flood-color="#ff0000"/>
        </filter>
    </defs>
    <path d="M9.84955 160.143V505.04L1.00568 496.197V169.025L9.84955 160.143Z" fill="#ff0000" filter="url(#shadow)"/>
    <path fill-rule="evenodd" clip-rule="evenodd"
          d="M10.3495 158.932V506.247L0.505676 496.404V168.819L10.3495 158.932ZM1.50568 169.232V495.99L9.34955 503.833V161.354L1.50568 169.232Z"
          fill="#ff0000"
          filter="url(#shadow)"/>
    <path fill-rule="evenodd" clip-rule="evenodd"
          d="M9.34955 0.459106H328.436L443.699 115.718V620.506H232.912C231.737 620.506 230.61 620.039 229.779 619.209C228.948 618.378 228.481 617.251 228.481 616.076V525.184C228.481 524.665 228.275 524.167 227.908 523.801C227.541 523.434 227.043 523.227 226.524 523.227C226.005 523.227 225.508 523.434 225.141 523.801C224.774 524.167 224.568 524.665 224.568 525.184V616.076C224.568 617.251 224.101 618.378 223.27 619.209C222.439 620.039 221.312 620.506 220.137 620.506H124.613L9.34955 505.247V0.459106ZM10.3495 1.45911V504.833L125.027 619.506H220.137C221.047 619.506 221.92 619.145 222.563 618.502C223.206 617.858 223.568 616.986 223.568 616.076V525.184C223.568 524.4 223.879 523.648 224.434 523.093C224.988 522.539 225.74 522.227 226.524 522.227C227.309 522.227 228.061 522.539 228.615 523.093C229.17 523.648 229.481 524.4 229.481 525.184V616.076C229.481 616.986 229.842 617.858 230.486 618.502C231.129 619.145 232.002 619.506 232.912 619.506H442.699V116.132L328.022 1.45911H10.3495Z"
          fill="#ff0000"
          filter="url(#shadow)"/>
    <path opacity="0.7"
          d="M443.199 115.925V620.006H232.912C231.869 620.006 230.869 619.592 230.132 618.855C229.395 618.118 228.981 617.118 228.981 616.076V525.184C228.981 524.532 228.722 523.908 228.261 523.447C227.801 522.986 227.176 522.727 226.524 522.727C225.873 522.727 225.248 522.986 224.787 523.447C224.327 523.908 224.068 524.532 224.068 525.184V616.076C224.068 617.118 223.654 618.118 222.917 618.855C222.179 619.592 221.18 620.006 220.137 620.006H124.82L9.84955 505.04V0.959106H328.229L443.199 115.925Z"
          fill="black" filter="url(#shadow)"/>
    <path opacity="0.03" d="M9.84955 0.959106L115.976 239.734H9.84955V0.959106Z" fill="white"/>
    <path opacity="0.03" d="M443.199 620.006V319.326L230.946 620.006H443.199Z" fill="white"/>
    <path opacity="0.03" d="M443.199 115.925L292.853 239.734V0.959106H328.976L443.199 115.925Z" fill="white"/>
    <path opacity="0.02" d="M204.415 434.292L115.976 239.734L292.853 239.715L204.415 434.292Z" fill="white"/>
    <path opacity="0.03" d="M115.976 238.752L204.415 0.959106L292.853 238.752H115.976Z" fill="white"/>
    <path opacity="0.03" d="M204.415 434.292L124.82 620.006L9.84955 505.04V363.544L204.415 434.292Z" fill="white"/>
    <path opacity="0.03" d="M293.836 239.734L394.312 389.966L205.397 434.292L293.836 239.734Z" fill="white"/>
    <path opacity="0.02" d="M115.976 240.717L60.6625 382.017L9.84955 363.672V240.717H115.976Z" fill="white"/>
</svg>
