<svg xmlns="http://www.w3.org/2000/svg" xmlns:xlink="http://www.w3.org/1999/xlink" viewBox="0 0 54 57"><defs><style>.cls-1{fill:none;stroke:#ff2e24;stroke-miterlimit:10; filter: drop-shadow(0 0 1px #ff2e24);}</style>
</defs><g id="Слой_2" data-name="Слой 2"><g id="Окно_1" data-name="Окно 1"><g id="Кнопки"><g id="Удалить">
<path class="cls-1" d="M41.3,20.19V47.26A2.65,2.65,0,0,1,38.76,50H15.63a2.64,2.64,0,0,1-2.54-2.74V20.19c0-.22,0-.45,0-.67H41.26C41.28,19.74,41.3,20,41.3,20.19Z"/>
<path class="cls-1" d="M47,16.57v2.95H7.07V16.57a3.23,3.23,0,0,1,3.23-3.23H43.77A3.23,3.23,0,0,1,47,16.57Z"/>
<path class="cls-1" d="M35.59,10.41v2.93H18.48V10.41A3.22,3.22,0,0,1,21.7,7.18H32.37A3.22,3.22,0,0,1,35.59,10.41Z"/><use transform="translate(13 16)" xlink:href="#image"/><line class="cls-1" x1="20.13" y1="44.69" x2="20.13" y2="22.91"/>
<line class="cls-1" x1="27.59" y1="44.69" x2="27.59" y2="22.91"/><use transform="translate(27 16)" xlink:href="#image"/><line class="cls-1" x1="34.31" y1="44.69" x2="34.31" y2="22.91"/></g></g></g></g></svg>